<svg width="236" height="57" viewBox="0 0 236 57" fill="none" xmlns="http://www.w3.org/2000/svg">
<path d="M35.1852 20.4998L32.6719 20.4998C32.3419 20.4998 32.0151 20.5613 31.7101 20.6806C31.4053 20.8 31.1283 20.9749 30.8947 21.1954C30.6614 21.4161 30.4763 21.6779 30.35 21.9659C30.2237 22.2541 30.1587 22.563 30.1587 22.8749L30.1587 32.3756C30.1587 35.5251 28.8348 38.5455 26.4782 40.7726C24.1215 42.9996 20.9254 44.2508 17.5926 44.2508C15.9424 44.2508 14.3083 43.9436 12.7837 43.3469C11.2591 42.7501 9.87385 41.8753 8.70696 40.7726C7.54009 39.6699 6.61449 38.3608 5.983 36.92C5.3515 35.4793 5.02649 33.9351 5.02651 32.3756L5.02651 22.8756C5.0266 22.5637 4.96167 22.2547 4.83542 21.9665C4.70916 21.6783 4.52405 21.4163 4.29067 21.1958C4.05726 20.9751 3.78017 20.8001 3.4752 20.6806C3.17024 20.5613 2.84337 20.4998 2.51325 20.4998L-1.60207e-06 20.4998L-9.34535e-07 32.3751C-8.11942e-07 34.5583 0.455047 36.7201 1.33916 38.7372C2.22327 40.7542 3.51914 42.587 5.15276 44.1307C6.78639 45.6745 8.72579 46.8991 10.8602 47.7346C12.9946 48.57 15.2823 49 17.5926 49C22.2584 49 26.7332 47.2485 30.0324 44.1307C33.3316 41.0129 35.1852 36.7843 35.1852 32.3751L35.1852 20.4998Z" fill="url(#paint0_linear_5105_414)"/>
<path d="M17.5926 39.501C19.5922 39.501 21.5099 38.7503 22.9237 37.4142C24.3377 36.078 25.132 34.2658 25.132 32.3762L25.132 20.5001C25.132 19.2402 25.6616 18.0322 26.6042 17.1415C27.5469 16.2507 28.8254 15.7502 30.1585 15.7502L35.185 15.7502L35.185 11.0001L30.1587 11.0001C27.4926 11.0001 24.9356 12.0009 23.0502 13.7825C21.165 15.5642 20.1059 17.9806 20.1059 20.5001L20.1059 32.3758C20.1059 33.0057 19.841 33.6098 19.3698 34.0553C18.8984 34.5007 18.2592 34.7509 17.5926 34.7509C16.926 34.7509 16.2868 34.5007 15.8155 34.0553C15.3441 33.6098 15.0793 33.0057 15.0793 32.3758L15.0793 20.5001C15.0793 17.9806 14.0202 15.5642 12.1349 13.7825C10.2497 12.0009 7.69268 11.0001 5.02651 11.0001L-1.57539e-06 11.0001L-1.31279e-06 15.7509L5.02651 15.7509C6.35944 15.7509 7.6378 16.2512 8.58039 17.1418C9.52299 18.0324 10.0526 19.2404 10.0528 20.5001L10.0528 32.3758C10.0528 33.3115 10.2478 34.2381 10.6267 35.1026C11.0056 35.9671 11.5609 36.7525 12.2611 37.4142C12.9612 38.0758 13.7924 38.6006 14.7072 38.9587C15.622 39.3167 16.6025 39.501 17.5926 39.501Z" fill="url(#paint1_linear_5105_414)"/>
<path d="M76.886 36.946H66.322L64.574 42H58.988L68.526 15.4379H74.72L84.2581 42H78.634L76.886 36.946ZM75.442 32.69L71.604 21.594L67.766 32.69H75.442ZM106.557 20.948V42H101.199V39.34C100.515 40.252 99.6159 40.974 98.5013 41.506C97.4119 42.0127 96.2213 42.266 94.9292 42.266C93.2826 42.266 91.8259 41.924 90.5592 41.24C89.2926 40.5307 88.2919 39.5047 87.5572 38.162C86.8479 36.794 86.4932 35.1727 86.4932 33.298V20.948H91.8132V32.538C91.8132 34.21 92.2312 35.502 93.0672 36.414C93.9032 37.3007 95.0432 37.744 96.4873 37.744C97.9566 37.744 99.1093 37.3007 99.9453 36.414C100.781 35.502 101.199 34.21 101.199 32.538V20.948H106.557ZM116.86 25.318V35.502C116.86 36.2113 117.025 36.7307 117.354 37.06C117.709 37.364 118.292 37.516 119.102 37.516H121.572V42H118.228C113.744 42 111.502 39.8213 111.502 35.464V25.318H108.994V20.948H111.502V15.7419H116.86V20.948H121.572V25.318H116.86ZM133.607 42.342C131.58 42.342 129.756 41.8987 128.135 41.012C126.513 40.1 125.234 38.8207 124.297 37.174C123.385 35.5273 122.929 33.6273 122.929 31.474C122.929 29.3206 123.397 27.4206 124.335 25.774C125.297 24.1273 126.602 22.8606 128.249 21.974C129.895 21.062 131.732 20.606 133.759 20.606C135.785 20.606 137.622 21.062 139.269 21.974C140.915 22.8606 142.207 24.1273 143.145 25.774C144.107 27.4206 144.589 29.3206 144.589 31.474C144.589 33.6273 144.095 35.5273 143.107 37.174C142.144 38.8207 140.827 40.1 139.155 41.012C137.508 41.8987 135.659 42.342 133.607 42.342ZM133.607 37.706C134.569 37.706 135.469 37.478 136.305 37.022C137.166 36.5407 137.85 35.8313 138.357 34.894C138.863 33.9566 139.117 32.8166 139.117 31.474C139.117 29.4726 138.585 27.94 137.521 26.876C136.482 25.7866 135.203 25.242 133.683 25.242C132.163 25.242 130.883 25.7866 129.845 26.876C128.831 27.94 128.325 29.4726 128.325 31.474C128.325 33.4753 128.819 35.0207 129.807 36.11C130.82 37.174 132.087 37.706 133.607 37.706ZM152.671 37.782H161.411V42H147.351V15.4759H152.671V37.782ZM183.527 20.948V42H178.169V39.34C177.485 40.252 176.585 40.974 175.471 41.506C174.381 42.0127 173.191 42.266 171.899 42.266C170.252 42.266 168.795 41.924 167.529 41.24C166.262 40.5307 165.261 39.5047 164.527 38.162C163.817 36.794 163.463 35.1727 163.463 33.298V20.948H168.783V32.538C168.783 34.21 169.201 35.502 170.037 36.414C170.873 37.3007 172.013 37.744 173.457 37.744C174.926 37.744 176.079 37.3007 176.915 36.414C177.751 35.502 178.169 34.21 178.169 32.538V20.948H183.527ZM192.956 24.026C193.64 23.0126 194.577 22.1893 195.768 21.556C196.984 20.9226 198.364 20.606 199.91 20.606C201.708 20.606 203.33 21.0493 204.774 21.936C206.243 22.8226 207.396 24.0893 208.232 25.736C209.093 27.3573 209.524 29.2446 209.524 31.398C209.524 33.5513 209.093 35.464 208.232 37.136C207.396 38.7827 206.243 40.062 204.774 40.974C203.33 41.886 201.708 42.342 199.91 42.342C198.339 42.342 196.958 42.038 195.768 41.43C194.602 40.7967 193.665 39.986 192.956 38.998V42H187.636V13.8799H192.956V24.026ZM204.09 31.398C204.09 30.1313 203.824 29.042 203.292 28.13C202.785 27.1926 202.101 26.4833 201.24 26.002C200.404 25.5206 199.492 25.28 198.504 25.28C197.541 25.28 196.629 25.5333 195.768 26.04C194.932 26.5213 194.248 27.2306 193.716 28.168C193.209 29.1053 192.956 30.2073 192.956 31.474C192.956 32.7406 193.209 33.8426 193.716 34.78C194.248 35.7173 194.932 36.4393 195.768 36.946C196.629 37.4273 197.541 37.668 198.504 37.668C199.492 37.668 200.404 37.4147 201.24 36.908C202.101 36.4013 202.785 35.6793 203.292 34.742C203.824 33.8046 204.09 32.69 204.09 31.398ZM232.39 20.948L219.356 51.956H213.694L218.254 41.468L209.818 20.948H215.784L221.218 35.654L226.728 20.948H232.39Z" fill="#F54A48"/>
<defs>
<linearGradient id="paint0_linear_5105_414" x1="17.5926" y1="44.6965" x2="17.5926" y2="8.1307" gradientUnits="userSpaceOnUse">
<stop stop-color="#F54A48"/>
<stop offset="1" stop-color="#FA982F"/>
</linearGradient>
<linearGradient id="paint1_linear_5105_414" x1="17.5925" y1="44.7166" x2="17.5925" y2="8.12149" gradientUnits="userSpaceOnUse">
<stop stop-color="#F54A48"/>
<stop offset="1" stop-color="#FA982F"/>
</linearGradient>
</defs>
</svg>
